<svg id="visual" viewBox="0 0 2560 1080" width="2560" height="1080" xmlns="http://www.w3.org/2000/svg" xmlns:xlink="http://www.w3.org/1999/xlink" version="1.1"><rect x="0" y="0" width="2560" height="1080" fill="#1c1c1c"></rect><path d="M0 904L32.8 908.2C65.7 912.3 131.3 920.7 197 925.8C262.7 931 328.3 933 394 928C459.7 923 525.3 911 591 910.3C656.7 909.7 722.3 920.3 788 923.5C853.7 926.7 919.3 922.3 985 919C1050.7 915.7 1116.3 913.3 1181.8 918.8C1247.3 924.3 1312.7 937.7 1378.2 936.2C1443.7 934.7 1509.3 918.3 1575 909.7C1640.7 901 1706.3 900 1772 899.8C1837.7 899.7 1903.3 900.3 1969 906.2C2034.7 912 2100.3 923 2166 932.7C2231.7 942.3 2297.3 950.7 2363 949.5C2428.7 948.3 2494.3 937.7 2527.2 932.3L2560 927L2560 1081L2527.2 1081C2494.3 1081 2428.7 1081 2363 1081C2297.3 1081 2231.7 1081 2166 1081C2100.3 1081 2034.7 1081 1969 1081C1903.3 1081 1837.7 1081 1772 1081C1706.3 1081 1640.7 1081 1575 1081C1509.3 1081 1443.7 1081 1378.2 1081C1312.7 1081 1247.3 1081 1181.8 1081C1116.3 1081 1050.7 1081 985 1081C919.3 1081 853.7 1081 788 1081C722.3 1081 656.7 1081 591 1081C525.3 1081 459.7 1081 394 1081C328.3 1081 262.7 1081 197 1081C131.3 1081 65.7 1081 32.8 1081L0 1081Z" fill="#2af598"></path><path d="M0 931L32.8 933.5C65.7 936 131.3 941 197 947.5C262.7 954 328.3 962 394 968.2C459.7 974.3 525.3 978.7 591 972C656.7 965.3 722.3 947.7 788 939.5C853.7 931.3 919.3 932.7 985 941.7C1050.7 950.7 1116.3 967.3 1181.8 973.5C1247.3 979.7 1312.7 975.3 1378.2 972.7C1443.7 970 1509.3 969 1575 970C1640.7 971 1706.3 974 1772 973C1837.7 972 1903.3 967 1969 966.5C2034.7 966 2100.3 970 2166 965.5C2231.7 961 2297.3 948 2363 945C2428.7 942 2494.3 949 2527.2 952.5L2560 956L2560 1081L2527.2 1081C2494.3 1081 2428.7 1081 2363 1081C2297.3 1081 2231.7 1081 2166 1081C2100.3 1081 2034.7 1081 1969 1081C1903.3 1081 1837.7 1081 1772 1081C1706.3 1081 1640.7 1081 1575 1081C1509.3 1081 1443.7 1081 1378.2 1081C1312.7 1081 1247.3 1081 1181.8 1081C1116.3 1081 1050.7 1081 985 1081C919.3 1081 853.7 1081 788 1081C722.3 1081 656.7 1081 591 1081C525.3 1081 459.7 1081 394 1081C328.3 1081 262.7 1081 197 1081C131.3 1081 65.7 1081 32.8 1081L0 1081Z" fill="#00e8dc"></path><path d="M0 996L32.8 992.2C65.7 988.3 131.3 980.7 197 976.5C262.7 972.3 328.3 971.7 394 971.3C459.7 971 525.3 971 591 973C656.7 975 722.3 979 788 985.5C853.7 992 919.3 1001 985 1000.5C1050.7 1000 1116.3 990 1181.8 983.7C1247.3 977.3 1312.7 974.7 1378.2 977C1443.7 979.3 1509.3 986.7 1575 988.2C1640.7 989.7 1706.3 985.3 1772 986.2C1837.7 987 1903.3 993 1969 995.2C2034.7 997.3 2100.3 995.7 2166 993.8C2231.7 992 2297.3 990 2363 989C2428.7 988 2494.3 988 2527.2 988L2560 988L2560 1081L2527.2 1081C2494.3 1081 2428.7 1081 2363 1081C2297.3 1081 2231.7 1081 2166 1081C2100.3 1081 2034.7 1081 1969 1081C1903.3 1081 1837.7 1081 1772 1081C1706.3 1081 1640.7 1081 1575 1081C1509.3 1081 1443.7 1081 1378.2 1081C1312.7 1081 1247.3 1081 1181.8 1081C1116.3 1081 1050.7 1081 985 1081C919.3 1081 853.7 1081 788 1081C722.3 1081 656.7 1081 591 1081C525.3 1081 459.7 1081 394 1081C328.3 1081 262.7 1081 197 1081C131.3 1081 65.7 1081 32.8 1081L0 1081Z" fill="#00d3f6"></path><path d="M0 1028L32.8 1028.8C65.7 1029.7 131.3 1031.3 197 1025.7C262.7 1020 328.3 1007 394 1001.5C459.7 996 525.3 998 591 1004.7C656.7 1011.3 722.3 1022.7 788 1022.5C853.7 1022.3 919.3 1010.7 985 1005.5C1050.7 1000.3 1116.3 1001.7 1181.8 1002C1247.3 1002.3 1312.7 1001.7 1378.2 1005C1443.7 1008.3 1509.3 1015.7 1575 1020.8C1640.7 1026 1706.3 1029 1772 1027C1837.7 1025 1903.3 1018 1969 1017.2C2034.7 1016.3 2100.3 1021.7 2166 1022.2C2231.7 1022.7 2297.3 1018.3 2363 1016.8C2428.7 1015.3 2494.3 1016.7 2527.2 1017.3L2560 1018L2560 1081L2527.2 1081C2494.3 1081 2428.7 1081 2363 1081C2297.3 1081 2231.7 1081 2166 1081C2100.3 1081 2034.7 1081 1969 1081C1903.3 1081 1837.7 1081 1772 1081C1706.3 1081 1640.7 1081 1575 1081C1509.3 1081 1443.7 1081 1378.2 1081C1312.7 1081 1247.3 1081 1181.8 1081C1116.3 1081 1050.7 1081 985 1081C919.3 1081 853.7 1081 788 1081C722.3 1081 656.7 1081 591 1081C525.3 1081 459.7 1081 394 1081C328.3 1081 262.7 1081 197 1081C131.3 1081 65.7 1081 32.8 1081L0 1081Z" fill="#00bbfe"></path><path d="M0 1027L32.8 1031C65.7 1035 131.3 1043 197 1043.2C262.7 1043.3 328.3 1035.7 394 1036.5C459.7 1037.3 525.3 1046.7 591 1047.3C656.7 1048 722.3 1040 788 1036.2C853.7 1032.3 919.3 1032.7 985 1032.7C1050.7 1032.7 1116.3 1032.3 1181.8 1034.3C1247.3 1036.3 1312.7 1040.7 1378.2 1039.8C1443.7 1039 1509.3 1033 1575 1033.7C1640.7 1034.3 1706.3 1041.7 1772 1043C1837.7 1044.3 1903.3 1039.7 1969 1040.5C2034.7 1041.3 2100.3 1047.7 2166 1049.3C2231.7 1051 2297.3 1048 2363 1044.5C2428.7 1041 2494.3 1037 2527.2 1035L2560 1033L2560 1081L2527.2 1081C2494.3 1081 2428.7 1081 2363 1081C2297.3 1081 2231.7 1081 2166 1081C2100.3 1081 2034.7 1081 1969 1081C1903.3 1081 1837.7 1081 1772 1081C1706.3 1081 1640.7 1081 1575 1081C1509.3 1081 1443.7 1081 1378.2 1081C1312.7 1081 1247.3 1081 1181.8 1081C1116.3 1081 1050.7 1081 985 1081C919.3 1081 853.7 1081 788 1081C722.3 1081 656.7 1081 591 1081C525.3 1081 459.7 1081 394 1081C328.3 1081 262.7 1081 197 1081C131.3 1081 65.7 1081 32.8 1081L0 1081Z" fill="#009efd"></path></svg>